<svg width="16" height="15" viewBox="0 0 16 15" fill="none" xmlns="http://www.w3.org/2000/svg">
<path fill-rule="evenodd" clip-rule="evenodd" d="M8 0C3.58867 0 0 3.18802 0 7.10561C0 8.47529 0.438667 9.80122 1.27067 10.9485C1.11333 12.6679 0.691333 13.9451 0.078 14.5503C-0.00266667 14.63 -0.0233333 14.7533 0.0286667 14.8533C0.073 14.9447 0.166667 15 0.267 15C0.278667 15 0.291667 14.9987 0.303333 14.9974C0.411333 14.9819 2.92067 14.626 4.73567 13.5918C5.76567 14.003 6.86333 14.2096 8 14.2096C12.4113 14.2096 16 11.0232 16 7.10561C16 3.18802 12.4113 0 8 0ZM4.267 8.15787C3.67833 8.15787 3.20067 7.68618 3.20067 7.10561C3.20067 6.52471 3.67833 6.05335 4.267 6.05335C4.85533 6.05335 5.33333 6.52471 5.33333 7.10561C5.33333 7.68618 4.85533 8.15787 4.267 8.15787ZM8 8.15787C7.41133 8.15787 6.93367 7.68618 6.93367 7.10561C6.93367 6.52471 7.41133 6.05335 8 6.05335C8.58867 6.05335 9.06633 6.52471 9.06633 7.10561C9.06633 7.68618 8.58867 8.15787 8 8.15787ZM11.733 8.15787C11.1447 8.15787 10.6667 7.68618 10.6667 7.10561C10.6667 6.52471 11.1447 6.05335 11.733 6.05335C12.3217 6.05335 12.7993 6.52471 12.7993 7.10561C12.7993 7.68618 12.3217 8.15787 11.733 8.15787Z" fill="#D4D8D9"/>
</svg>
